# xmcd
#
# Track frame offsets: 
#        182
#        16205
#        32127
#        51855
#
# Disc length: 868 seconds
#
# Revision: 0
# Processed by: cddbd v1.5.2PL0 Copyright (c) Steve Scherf et al.
# Submitted via: ExactAudioCopy v0.99pb5
#
DISCID=29036204
DTITLE=Mario Mendez - Für immer and ewig
DYEAR=1993
DGENRE=Schlager
TTITLE0=Für immer and ewig
TTITLE1=Sag mir, was du willst
TTITLE2=Y Ahora
TTITLE3=Vamos Chicos
EXTD=
EXTT0=
EXTT1=
EXTT2=
EXTT3=
PLAYORDER=
